<?xml version="1.0" standalone="no"?>
<!DOCTYPE svg PUBLIC "-//W3C//DTD SVG 20010904//EN"
 "http://www.w3.org/TR/2001/REC-SVG-20010904/DTD/svg10.dtd">
<svg version="1.0" xmlns="http://www.w3.org/2000/svg"
 width="575.000000pt" height="434.000000pt" viewBox="0 0 575.000000 434.000000"
 preserveAspectRatio="xMidYMid meet">

<g transform="translate(0.000000,434.000000) scale(0.100000,-0.100000)"
fill="#000000" stroke="none">
<path d="M3420 4070 c-80 -5 -205 -14 -279 -20 l-134 -11 -496 -201 c-506
-205 -1073 -439 -1261 -523 l-105 -46 60 5 c466 42 1572 17 1745 -39 64 -21
114 -66 144 -128 24 -52 62 -231 176 -826 27 -145 51 -265 52 -266 6 -5 964
907 974 928 6 12 19 89 28 171 10 82 22 159 28 170 6 12 80 91 164 177 93 96
156 167 160 185 10 39 -32 226 -67 301 -33 69 -63 98 -118 113 -48 13 -887 21
-1071 10z"/>
<path d="M4509 3373 c-118 -120 -108 -99 -129 -293 -6 -58 -18 -124 -26 -147
-13 -36 -111 -133 -630 -623 -369 -350 -614 -589 -614 -600 0 -9 3 -32 6 -49
l7 -31 52 45 c32 27 63 45 78 45 77 0 109 22 404 281 296 260 654 603 679 651
8 15 14 53 14 84 l0 57 110 113 c149 152 163 183 168 359 1 72 -1 149 -5 173
l-8 43 -106 -108z"/>
<path d="M1600 3234 c-217 -9 -483 -25 -560 -35 -70 -9 -117 -24 -263 -86 -97
-42 -176 -78 -174 -80 3 -2 110 2 238 8 366 18 1276 1 1577 -30 54 -6 100 -17
135 -35 61 -30 137 -100 172 -160 21 -35 160 -403 335 -888 24 -65 46 -118 49
-118 4 0 41 35 83 78 l77 77 -65 340 c-144 757 -156 804 -213 844 -57 39 -144
52 -471 71 -191 10 -784 20 -920 14z"/>
<path d="M875 2984 c-33 -2 -147 -8 -254 -14 -204 -12 -247 -21 -275 -61 -35
-51 -25 -88 171 -595 l188 -484 37 0 c21 0 38 4 38 8 0 4 -86 227 -190 496
-105 268 -190 497 -190 507 0 38 36 46 265 58 524 26 956 24 1560 -9 229 -13
245 -16 298 -51 82 -54 81 -52 335 -749 l118 -325 38 -3 c37 -3 38 -2 32 23
-8 29 -237 658 -318 872 -42 111 -59 144 -98 187 -89 97 -132 107 -495 126
-204 11 -1140 21 -1260 14z"/>
<path d="M883 2758 c8 -120 38 -324 108 -743 40 -243 54 -307 75 -342 31 -54
85 -106 132 -129 43 -21 115 -24 962 -48 305 -9 589 -18 630 -20 84 -4 143 10
200 48 47 31 76 97 66 151 -6 30 -11 35 -34 35 -25 0 -27 -4 -29 -41 -1 -48
-26 -86 -72 -113 -28 -16 -52 -18 -179 -17 -409 4 -1424 39 -1490 52 -61 12
-111 50 -137 105 -14 31 -17 95 -21 552 -3 284 -6 538 -7 565 l-2 47 -104 0
-104 0 6 -102z"/>
<path d="M645 2839 c-77 -5 -149 -10 -161 -11 -20 -3 -8 -36 157 -463 99 -253
182 -468 187 -478 6 -16 13 -14 59 20 44 32 52 42 48 63 -38 189 -115 746
-115 826 0 45 -3 54 -17 53 -10 -1 -81 -6 -158 -10z"/>
<path d="M1331 2644 c-12 -15 -21 -30 -21 -34 0 -44 114 -743 125 -768 27 -59
28 -59 611 -67 l532 -7 17 25 c9 15 14 31 10 37 -4 6 -95 10 -258 11 -139 1
-373 4 -522 8 -304 7 -316 10 -335 80 -5 20 -30 182 -55 361 -25 179 -48 337
-51 353 -7 34 -27 35 -53 1z"/>
<path d="M1455 2638 c3 -18 25 -179 49 -358 42 -312 45 -325 70 -347 14 -12
41 -24 59 -27 24 -4 955 -25 964 -22 5 3 -89 706 -98 728 -24 59 -12 58 -554
58 l-496 0 6 -32z m740 -52 c173 -79 248 -289 165 -461 -51 -106 -161 -182
-278 -192 -137 -13 -277 68 -339 195 -24 50 -28 69 -28 147 0 104 19 156 81
225 105 115 261 149 399 86z"/>
<path d="M1978 2546 c-203 -56 -272 -298 -133 -464 71 -84 228 -113 330 -60
105 55 154 137 155 257 l0 73 -39 -35 c-68 -61 -142 -58 -201 9 -24 28 -30 44
-30 80 0 51 20 96 52 118 12 9 20 18 17 20 -12 13 -109 14 -151 2z"/>
<path d="M4838 2201 c-26 -17 -53 -40 -62 -53 -35 -55 -85 -270 -101 -433 -9
-97 -12 -105 -41 -105 -18 0 -24 -5 -24 -22 -1 -33 -33 -99 -61 -125 -50 -45
-92 -53 -428 -83 -179 -16 -367 -32 -417 -35 l-92 -7 -6 -47 c-3 -25 -9 -105
-12 -176 l-7 -131 124 8 c68 4 310 22 538 39 227 16 419 28 426 25 7 -2 16
-22 19 -43 12 -64 66 -242 90 -297 13 -28 32 -59 43 -69 32 -28 516 -188 567
-187 18 1 17 3 -9 17 -95 51 -123 98 -160 277 -71 335 -78 736 -19 1041 41
212 79 286 167 325 l39 18 -33 10 c-33 11 -453 82 -481 82 -8 0 -35 -13 -60
-29z m66 -535 c64 -19 111 -57 145 -118 93 -162 42 -428 -94 -493 -31 -14 -42
-15 -66 -5 -37 16 -37 30 -1 30 36 0 74 39 103 105 18 40 23 69 23 140 1 106
-21 179 -67 231 -42 49 -77 64 -143 64 -57 0 -57 0 -39 20 15 17 54 34 86 39
3 1 27 -5 53 -13z"/>
<path d="M3659 1924 c-134 -119 -262 -224 -284 -234 -22 -10 -60 -21 -85 -25
-38 -6 -58 -18 -120 -75 l-75 -69 120 0 c133 0 244 11 320 34 l50 15 60 136
c33 76 76 160 95 188 20 28 66 95 103 149 37 53 66 97 64 97 -3 0 -114 -97
-248 -216z"/>
<path d="M5375 2047 c-48 -27 -59 -48 -91 -174 -76 -300 -77 -733 -4 -1094 29
-140 49 -189 89 -216 19 -13 38 -23 42 -23 5 0 9 344 9 765 0 421 -1 765 -2
765 -2 0 -21 -11 -43 -23z"/>
<path d="M1243 1920 c-28 -11 -46 -45 -38 -70 16 -51 69 -66 105 -30 28 28 25
64 -6 89 -30 23 -30 23 -61 11z"/>
<path d="M2731 1861 c-53 -53 12 -138 74 -97 34 23 41 53 18 85 -26 33 -65 39
-92 12z"/>
<path d="M4050 1544 c-250 -29 -460 -52 -467 -49 -7 2 -43 -3 -80 -11 -42 -9
-146 -17 -273 -20 -189 -5 -209 -7 -261 -30 -38 -16 -75 -24 -113 -24 -47 0
-56 -3 -56 -17 1 -62 52 -418 64 -441 18 -36 44 -58 87 -76 20 -8 52 -31 70
-49 41 -41 90 -57 180 -57 81 0 140 19 189 63 20 17 51 39 68 49 50 27 64 67
74 218 8 138 25 280 33 288 2 3 129 15 282 28 533 45 592 52 626 72 33 19 77
75 77 98 0 18 26 20 -500 -42z"/>
</g>
</svg>
